{
  "title": "Ariana Grande ft. Iggy Azalea - Problem (2014) 720p x264 MP3 E-S",
  "uid": 10266799,
  "size": 43531137,
  "categoryP": "video",
  "categoryS": "music_videos",
  "magnet": "?xt=urn:btih:7c2aaa6d8144cf21dba680fa52b0c9500c1e2790&amp;dn=Ariana+Grande+ft.+Iggy+Azalea+-+Problem+%282014%29+720p+x264+MP3+E-S&amp;tr=udp%3A%2F%2Ftracker.openbittorrent.com%3A80&amp;tr=udp%3A%2F%2Fopen.demonii.com%3A1337&amp;tr=udp%3A%2F%2Ftracker.coppersurfer.tk%3A6969&amp;tr=udp%3A%2F%2Fexodus.desync.com%3A6969",
  "seeders": 55,
  "leechers": 0,
  "uploader": "canc232",
  "files": 1,
  "time": 1401531833,
  "description": "Ariana Grande ft. Iggy Azalea - Problem 720p x264 AAC E-Subs [GWC] \n\n\n\nCOVER : &lt;a href=&quot;\nhttp://i.imgur.com/tIR8JTY.jpg&quot; rel=&quot;nofollow&quot; target=&quot;_NEW&quot;&gt;\nhttp://i.imgur.com/tIR8JTY.jpg&lt;/a&gt;\n\n\n\nAriana Grande has one less &quot;Problem&quot; now that she's released one brand-new music video for the chart-topping song!\n\nWith dizzying backdrops, crazy contortionists, go-go dancers and Iggy Azalea's big, bouffant hair reminiscent of Nancy Sinatra's classic &quot;These Boots Are Made for Walkin'&quot; video, the visuals are definitively '60s mod-style.\n\n\n\nTHUMBNAIL IMAGE : &lt;a href=&quot;\nhttp://i.imgur.com/BvX9Pjr.jpg&quot; rel=&quot;nofollow&quot; target=&quot;_NEW&quot;&gt;\nhttp://i.imgur.com/BvX9Pjr.jpg&lt;/a&gt;\n\n\nI colored the subtitles a bit. Let me know if you like it so I can continue next time\n:)\n\n\nMEDIA INFO :\nGeneral \nFormat : MPEG-4 \nFormat profile : Base Media \nFile size : 41.5 MiB \nDuration : 3mn 27s \nOverall bit rate mode : Variable \nOverall bit rate : 1 681 Kbps \n\nVideo \nFormat : AVC \nFormat profile : &lt;a class=&quot;__cf_email__&quot; href=&quot;/cdn-cgi/l/email-protection&quot; data-cfemail=&quot;a6ebc7cfc8e6ea958897&quot;&gt;[email&amp;#160;protected]&lt;/a&gt;&lt;script cf-hash='f9e31' type=&quot;text/javascript&quot;&gt;\n/* &lt;![CDATA[ */!function(){try{var t=&quot;currentScript&quot;in document?document.currentScript:function(){for(var t=document.getElementsByTagName(&quot;script&quot;),e=t.length;e--;)if(t[e].getAttribute(&quot;cf-hash&quot;))return t[e]}();if(t&amp;&amp;t.previousSibling){var e,r,n,i,c=t.previousSibling,a=c.getAttribute(&quot;data-cfemail&quot;);if(a){for(e=&quot;&quot;,r=parseInt(a.substr(0,2),16),n=2;a.length-n;n+=2)i=parseInt(a.substr(n,2),16)^r,e+=String.fromCharCode(i);e=document.createTextNode(e),c.parentNode.replaceChild(e,c)}}}catch(u){}}();/* ]]&gt; */&lt;/script&gt; \nFormat settings, CABAC : Yes \nFormat settings, ReFrames : 3 frames \nDuration : 3mn 27s \nBit rate : 1 549 Kbps \nWidth : 1 280 pixels \nHeight : 720 pixels \nDisplay aspect ratio : 16:9 \nFrame rate mode : Variable \nFrame rate : 23.976 fps \nStream size : 38.2 MiB (92%) \nTitle : Ariana Grande ft. Iggy Azalea - Problem 720p x264 AAC E-Subs [GWC] \nTagged date : UTC 2014-05-31 08:06:45 \n\nAudio \nFormat : MPEG Audio \nFormat version : Version 1 \nFormat profile : Layer 3 \nBit rate mode : Variable \nChannel(s) : 2 channels \nSampling rate : 44.1 KHz \nStream size : 3.16 MiB (8%) \nWriting library : LAME3.99.3 \nLanguage : English \n\nText \nFormat : Timed Text \nTitle : Rainbow Subs by [GWC] \nLanguage : English \n\n",
  "parsed": {
    "xt": "urn:btih:7c2aaa6d8144cf21dba680fa52b0c9500c1e2790",
    "dn": "Ariana Grande ft. Iggy Azalea - Problem (2014) 720p x264 MP3 E-S",
    "tr": [
      "udp://exodus.desync.com:6969",
      "udp://open.demonii.com:1337",
      "udp://tracker.coppersurfer.tk:6969",
      "udp://tracker.openbittorrent.com:80"
    ],
    "infoHash": "7c2aaa6d8144cf21dba680fa52b0c9500c1e2790",
    "infoHashBuffer": {
      "type": "Buffer",
      "data": [
        124,
        42,
        170,
        109,
        129,
        68,
        207,
        33,
        219,
        166,
        128,
        250,
        82,
        176,
        201,
        80,
        12,
        30,
        39,
        144
      ]
    },
    "name": "Ariana Grande ft. Iggy Azalea - Problem (2014) 720p x264 MP3 E-S",
    "announce": [
      "udp://exodus.desync.com:6969",
      "udp://open.demonii.com:1337",
      "udp://tracker.coppersurfer.tk:6969",
      "udp://tracker.openbittorrent.com:80"
    ],
    "urlList": []
  },
  "previous": 7,
  "peers": 7,
  "last_updated": "2016-12-27T04:49:04.784Z"
}